<?xml version="1.0" encoding="UTF-8" standalone="no"?>
<!DOCTYPE svg PUBLIC "-//W3C//DTD SVG 1.1//EN"
 "http://www.w3.org/Graphics/SVG/1.1/DTD/svg11.dtd">
<!-- Generated by graphviz version 2.46.1 (20210213.1702)
 -->
<!-- Pages: 1 -->
<svg width="1262pt" height="825pt"
 viewBox="0.00 0.00 1261.71 824.80" xmlns="http://www.w3.org/2000/svg" xmlns:xlink="http://www.w3.org/1999/xlink">
<g id="graph0" class="graph" transform="scale(1 1) rotate(0) translate(4 820.8)">
<polygon fill="white" stroke="transparent" points="-4,4 -4,-820.8 1257.71,-820.8 1257.71,4 -4,4"/>
<!-- haproxy -->
<g id="node1" class="node">
<title>haproxy</title>
<polygon fill="none" stroke="black" points="661.78,-816.8 591.45,-816.8 566.4,-780.8 686.83,-780.8 661.78,-816.8"/>
<text text-anchor="middle" x="626.62" y="-794.6" font-family="Times,serif" font-size="14.00">haproxy</text>
</g>
<!-- parse_syslog -->
<g id="node4" class="node">
<title>parse_syslog</title>
<polygon fill="none" stroke="black" points="626.62,-743.8 540.31,-725.8 626.62,-707.8 712.92,-725.8 626.62,-743.8"/>
<text text-anchor="middle" x="626.62" y="-721.6" font-family="Times,serif" font-size="14.00">parse_syslog</text>
</g>
<!-- haproxy&#45;&gt;parse_syslog -->
<g id="edge2" class="edge">
<title>haproxy&#45;&gt;parse_syslog</title>
<path fill="none" stroke="black" d="M626.62,-780.61C626.62,-772.59 626.62,-762.85 626.62,-753.87"/>
<polygon fill="black" stroke="black" points="630.12,-753.83 626.62,-743.83 623.12,-753.83 630.12,-753.83"/>
</g>
<!-- route_by_type -->
<g id="node2" class="node">
<title>route_by_type</title>
<polygon fill="none" stroke="black" points="626.62,-378.8 532.12,-360.8 626.62,-342.8 721.11,-360.8 626.62,-378.8"/>
<text text-anchor="middle" x="626.62" y="-356.6" font-family="Times,serif" font-size="14.00">route_by_type</text>
</g>
<!-- map_to_reuse -->
<g id="node8" class="node">
<title>map_to_reuse</title>
<polygon fill="none" stroke="black" points="104.62,-290 12.19,-272 104.62,-254 197.04,-272 104.62,-290"/>
<text text-anchor="middle" x="104.62" y="-267.8" font-family="Times,serif" font-size="14.00">map_to_reuse</text>
</g>
<!-- route_by_type&#45;&gt;map_to_reuse -->
<g id="edge10" class="edge">
<title>route_by_type&#45;&gt;map_to_reuse</title>
<path fill="none" stroke="black" d="M578.62,-351.88C500.46,-338.98 340.8,-312.58 205.62,-290 191.36,-287.62 175.98,-285.04 161.62,-282.62"/>
<polygon fill="black" stroke="black" points="161.82,-279.1 151.38,-280.9 160.66,-286.01 161.82,-279.1"/>
<text text-anchor="middle" x="428.38" y="-312.2" font-family="Times,serif" font-size="14.00">reuse</text>
</g>
<!-- map_to_resource_hit -->
<g id="node12" class="node">
<title>map_to_resource_hit</title>
<polygon fill="none" stroke="black" points="345.62,-290 214.82,-272 345.62,-254 476.41,-272 345.62,-290"/>
<text text-anchor="middle" x="345.62" y="-267.8" font-family="Times,serif" font-size="14.00">map_to_resource_hit</text>
</g>
<!-- route_by_type&#45;&gt;map_to_resource_hit -->
<g id="edge11" class="edge">
<title>route_by_type&#45;&gt;map_to_resource_hit</title>
<path fill="none" stroke="black" d="M592.44,-349.24C542.77,-333.9 450.4,-305.37 393.82,-287.89"/>
<polygon fill="black" stroke="black" points="394.63,-284.48 384.04,-284.87 392.56,-291.16 394.63,-284.48"/>
<text text-anchor="middle" x="546.21" y="-312.2" font-family="Times,serif" font-size="14.00">resource_hit</text>
</g>
<!-- map_to_organization -->
<g id="node14" class="node">
<title>map_to_organization</title>
<polygon fill="none" stroke="black" points="626.62,-290 494.79,-272 626.62,-254 758.45,-272 626.62,-290"/>
<text text-anchor="middle" x="626.62" y="-267.8" font-family="Times,serif" font-size="14.00">map_to_organization</text>
</g>
<!-- route_by_type&#45;&gt;map_to_organization -->
<g id="edge13" class="edge">
<title>route_by_type&#45;&gt;map_to_organization</title>
<path fill="none" stroke="black" d="M626.62,-342.65C626.62,-330.52 626.62,-314.02 626.62,-300.12"/>
<polygon fill="black" stroke="black" points="630.12,-300.11 626.62,-290.11 623.12,-300.11 630.12,-300.11"/>
<text text-anchor="middle" x="661.6" y="-312.2" font-family="Times,serif" font-size="14.00">organization</text>
</g>
<!-- map_to_dataset -->
<g id="node16" class="node">
<title>map_to_dataset</title>
<polygon fill="none" stroke="black" points="877.62,-290 776.47,-272 877.62,-254 978.76,-272 877.62,-290"/>
<text text-anchor="middle" x="877.62" y="-267.8" font-family="Times,serif" font-size="14.00">map_to_dataset</text>
</g>
<!-- route_by_type&#45;&gt;map_to_dataset -->
<g id="edge14" class="edge">
<title>route_by_type&#45;&gt;map_to_dataset</title>
<path fill="none" stroke="black" d="M658.4,-348.81C703.3,-333.28 785.36,-304.9 835.34,-287.62"/>
<polygon fill="black" stroke="black" points="836.59,-290.89 844.89,-284.32 834.3,-284.28 836.59,-290.89"/>
<text text-anchor="middle" x="793.05" y="-312.2" font-family="Times,serif" font-size="14.00">dataset</text>
</g>
<!-- map_to_resource -->
<g id="node17" class="node">
<title>map_to_resource</title>
<polygon fill="none" stroke="black" points="1106.62,-290 996.81,-272 1106.62,-254 1216.42,-272 1106.62,-290"/>
<text text-anchor="middle" x="1106.62" y="-267.8" font-family="Times,serif" font-size="14.00">map_to_resource</text>
</g>
<!-- route_by_type&#45;&gt;map_to_resource -->
<g id="edge12" class="edge">
<title>route_by_type&#45;&gt;map_to_resource</title>
<path fill="none" stroke="black" d="M672.64,-351.48C760.12,-335.66 950.29,-301.27 1047.23,-283.74"/>
<polygon fill="black" stroke="black" points="1047.94,-287.17 1057.16,-281.94 1046.7,-280.28 1047.94,-287.17"/>
<text text-anchor="middle" x="932.32" y="-312.2" font-family="Times,serif" font-size="14.00">resource</text>
</g>
<!-- detect_type -->
<g id="node3" class="node">
<title>detect_type</title>
<polygon fill="none" stroke="black" points="626.62,-451.8 548,-433.8 626.62,-415.8 705.23,-433.8 626.62,-451.8"/>
<text text-anchor="middle" x="626.62" y="-429.6" font-family="Times,serif" font-size="14.00">detect_type</text>
</g>
<!-- detect_type&#45;&gt;route_by_type -->
<g id="edge1" class="edge">
<title>detect_type&#45;&gt;route_by_type</title>
<path fill="none" stroke="black" d="M626.62,-415.61C626.62,-407.59 626.62,-397.85 626.62,-388.87"/>
<polygon fill="black" stroke="black" points="630.12,-388.83 626.62,-378.83 623.12,-388.83 630.12,-388.83"/>
</g>
<!-- parse_haproxy -->
<g id="node6" class="node">
<title>parse_haproxy</title>
<polygon fill="none" stroke="black" points="626.62,-670.8 530.62,-652.8 626.62,-634.8 722.61,-652.8 626.62,-670.8"/>
<text text-anchor="middle" x="626.62" y="-648.6" font-family="Times,serif" font-size="14.00">parse_haproxy</text>
</g>
<!-- parse_syslog&#45;&gt;parse_haproxy -->
<g id="edge4" class="edge">
<title>parse_syslog&#45;&gt;parse_haproxy</title>
<path fill="none" stroke="black" d="M626.62,-707.61C626.62,-699.59 626.62,-689.85 626.62,-680.87"/>
<polygon fill="black" stroke="black" points="630.12,-680.83 626.62,-670.83 623.12,-680.83 630.12,-680.83"/>
</g>
<!-- parse_http_request -->
<g id="node5" class="node">
<title>parse_http_request</title>
<polygon fill="none" stroke="black" points="626.62,-597.8 508.1,-579.8 626.62,-561.8 745.13,-579.8 626.62,-597.8"/>
<text text-anchor="middle" x="626.62" y="-575.6" font-family="Times,serif" font-size="14.00">parse_http_request</text>
</g>
<!-- filter_requests -->
<g id="node18" class="node">
<title>filter_requests</title>
<polygon fill="none" stroke="black" points="626.62,-524.8 532.67,-506.8 626.62,-488.8 720.56,-506.8 626.62,-524.8"/>
<text text-anchor="middle" x="626.62" y="-502.6" font-family="Times,serif" font-size="14.00">filter_requests</text>
</g>
<!-- parse_http_request&#45;&gt;filter_requests -->
<g id="edge15" class="edge">
<title>parse_http_request&#45;&gt;filter_requests</title>
<path fill="none" stroke="black" d="M626.62,-561.61C626.62,-553.59 626.62,-543.85 626.62,-534.87"/>
<polygon fill="black" stroke="black" points="630.12,-534.83 626.62,-524.83 623.12,-534.83 630.12,-534.83"/>
</g>
<!-- parse_haproxy&#45;&gt;parse_http_request -->
<g id="edge3" class="edge">
<title>parse_haproxy&#45;&gt;parse_http_request</title>
<path fill="none" stroke="black" d="M626.62,-634.61C626.62,-626.59 626.62,-616.85 626.62,-607.87"/>
<polygon fill="black" stroke="black" points="630.12,-607.83 626.62,-597.83 623.12,-607.83 630.12,-607.83"/>
</g>
<!-- metric_count_reuses -->
<g id="node7" class="node">
<title>metric_count_reuses</title>
<polygon fill="none" stroke="black" points="128.62,-163 -0.12,-145 128.62,-127 257.35,-145 128.62,-163"/>
<text text-anchor="middle" x="128.62" y="-140.8" font-family="Times,serif" font-size="14.00">metric_count_reuses</text>
</g>
<!-- influxdb_metrics -->
<g id="node19" class="node">
<title>influxdb_metrics</title>
<polygon fill="none" stroke="black" points="563.06,0 690.17,0 735.44,-36 517.79,-36 563.06,0"/>
<text text-anchor="middle" x="626.62" y="-13.8" font-family="Times,serif" font-size="14.00">influxdb_metrics</text>
</g>
<!-- metric_count_reuses&#45;&gt;influxdb_metrics -->
<g id="edge21" class="edge">
<title>metric_count_reuses&#45;&gt;influxdb_metrics</title>
<path fill="none" stroke="black" d="M172.37,-133.02C256.64,-111.86 442.47,-65.22 548.48,-38.61"/>
<polygon fill="black" stroke="black" points="549.64,-41.93 558.49,-36.1 547.94,-35.14 549.64,-41.93"/>
</g>
<!-- map_to_reuse&#45;&gt;metric_count_reuses -->
<g id="edge5" class="edge">
<title>map_to_reuse&#45;&gt;metric_count_reuses</title>
<path fill="none" stroke="black" d="M107.8,-254.4C111.82,-233.48 118.77,-197.27 123.53,-172.5"/>
<polygon fill="black" stroke="black" points="126.97,-173.15 125.42,-162.67 120.09,-171.83 126.97,-173.15"/>
</g>
<!-- metric_count_resources -->
<g id="node9" class="node">
<title>metric_count_resources</title>
<polygon fill="none" stroke="black" points="1103.62,-109 957.51,-91 1103.62,-73 1249.72,-91 1103.62,-109"/>
<text text-anchor="middle" x="1103.62" y="-86.8" font-family="Times,serif" font-size="14.00">metric_count_resources</text>
</g>
<!-- metric_count_resources&#45;&gt;influxdb_metrics -->
<g id="edge18" class="edge">
<title>metric_count_resources&#45;&gt;influxdb_metrics</title>
<path fill="none" stroke="black" d="M1040.77,-80.64C965.59,-69.45 838.16,-50.49 744.46,-36.54"/>
<polygon fill="black" stroke="black" points="744.76,-33.05 734.36,-35.04 743.73,-39.97 744.76,-33.05"/>
</g>
<!-- filter_redirects_to_static -->
<g id="node10" class="node">
<title>filter_redirects_to_static</title>
<polygon fill="none" stroke="black" points="1104.62,-217 955.44,-199 1104.62,-181 1253.8,-199 1104.62,-217"/>
<text text-anchor="middle" x="1104.62" y="-194.8" font-family="Times,serif" font-size="14.00">filter_redirects_to_static</text>
</g>
<!-- filter_redirects_to_static&#45;&gt;metric_count_resources -->
<g id="edge6" class="edge">
<title>filter_redirects_to_static&#45;&gt;metric_count_resources</title>
<path fill="none" stroke="black" d="M1104.45,-180.97C1104.3,-164.28 1104.05,-138.58 1103.87,-119.08"/>
<polygon fill="black" stroke="black" points="1107.37,-118.95 1103.78,-108.99 1100.37,-119.02 1107.37,-118.95"/>
</g>
<!-- metric_count_resource_hits -->
<g id="node11" class="node">
<title>metric_count_resource_hits</title>
<polygon fill="none" stroke="black" points="439.62,-163 272.51,-145 439.62,-127 606.72,-145 439.62,-163"/>
<text text-anchor="middle" x="439.62" y="-140.8" font-family="Times,serif" font-size="14.00">metric_count_resource_hits</text>
</g>
<!-- metric_count_resource_hits&#45;&gt;influxdb_metrics -->
<g id="edge19" class="edge">
<title>metric_count_resource_hits&#45;&gt;influxdb_metrics</title>
<path fill="none" stroke="black" d="M461.8,-129.17C494.13,-107.56 554.48,-67.22 592.49,-41.81"/>
<polygon fill="black" stroke="black" points="594.81,-44.47 601.18,-36 590.92,-38.65 594.81,-44.47"/>
</g>
<!-- map_to_resource_hit&#45;&gt;metric_count_resource_hits -->
<g id="edge7" class="edge">
<title>map_to_resource_hit&#45;&gt;metric_count_resource_hits</title>
<path fill="none" stroke="black" d="M357.33,-255.42C373.44,-233.99 402.6,-195.23 421.52,-170.06"/>
<polygon fill="black" stroke="black" points="424.54,-171.87 427.75,-161.77 418.95,-167.66 424.54,-171.87"/>
</g>
<!-- metric_count_organizations -->
<g id="node13" class="node">
<title>metric_count_organizations</title>
<polygon fill="none" stroke="black" points="626.62,-217 458.48,-199 626.62,-181 794.75,-199 626.62,-217"/>
<text text-anchor="middle" x="626.62" y="-194.8" font-family="Times,serif" font-size="14.00">metric_count_organizations</text>
</g>
<!-- metric_count_organizations&#45;&gt;influxdb_metrics -->
<g id="edge22" class="edge">
<title>metric_count_organizations&#45;&gt;influxdb_metrics</title>
<path fill="none" stroke="black" d="M626.62,-180.84C626.62,-149.7 626.62,-83.66 626.62,-46.28"/>
<polygon fill="black" stroke="black" points="630.12,-46.11 626.62,-36.11 623.12,-46.11 630.12,-46.11"/>
</g>
<!-- map_to_organization&#45;&gt;metric_count_organizations -->
<g id="edge8" class="edge">
<title>map_to_organization&#45;&gt;metric_count_organizations</title>
<path fill="none" stroke="black" d="M626.62,-253.81C626.62,-245.79 626.62,-236.05 626.62,-227.07"/>
<polygon fill="black" stroke="black" points="630.12,-227.03 626.62,-217.03 623.12,-227.03 630.12,-227.03"/>
</g>
<!-- metric_count_datasets -->
<g id="node15" class="node">
<title>metric_count_datasets</title>
<polygon fill="none" stroke="black" points="798.62,-109 660.67,-91 798.62,-73 936.56,-91 798.62,-109"/>
<text text-anchor="middle" x="798.62" y="-86.8" font-family="Times,serif" font-size="14.00">metric_count_datasets</text>
</g>
<!-- metric_count_datasets&#45;&gt;influxdb_metrics -->
<g id="edge20" class="edge">
<title>metric_count_datasets&#45;&gt;influxdb_metrics</title>
<path fill="none" stroke="black" d="M767.07,-76.98C742.06,-66.65 706.62,-52.02 677.59,-40.04"/>
<polygon fill="black" stroke="black" points="678.6,-36.67 668.02,-36.09 675.93,-43.14 678.6,-36.67"/>
</g>
<!-- map_to_dataset&#45;&gt;metric_count_datasets -->
<g id="edge9" class="edge">
<title>map_to_dataset&#45;&gt;metric_count_datasets</title>
<path fill="none" stroke="black" d="M870.6,-255.11C856.88,-224.01 826.35,-154.85 809.8,-117.35"/>
<polygon fill="black" stroke="black" points="812.96,-115.84 805.72,-108.11 806.56,-118.67 812.96,-115.84"/>
</g>
<!-- map_to_resource&#45;&gt;filter_redirects_to_static -->
<g id="edge16" class="edge">
<title>map_to_resource&#45;&gt;filter_redirects_to_static</title>
<path fill="none" stroke="black" d="M1106.13,-253.81C1105.91,-245.79 1105.63,-236.05 1105.38,-227.07"/>
<polygon fill="black" stroke="black" points="1108.88,-226.93 1105.1,-217.03 1101.88,-227.12 1108.88,-226.93"/>
</g>
<!-- filter_requests&#45;&gt;detect_type -->
<g id="edge17" class="edge">
<title>filter_requests&#45;&gt;detect_type</title>
<path fill="none" stroke="black" d="M626.62,-488.61C626.62,-480.59 626.62,-470.85 626.62,-461.87"/>
<polygon fill="black" stroke="black" points="630.12,-461.83 626.62,-451.83 623.12,-461.83 630.12,-461.83"/>
</g>
</g>
</svg>
