<?xml version="1.0" encoding="UTF-8" standalone="no"?>
<!DOCTYPE svg PUBLIC "-//W3C//DTD SVG 1.1//EN"
 "http://www.w3.org/Graphics/SVG/1.1/DTD/svg11.dtd">
<!-- Generated by graphviz version 2.46.1 (20210213.1702)
 -->
<!-- Pages: 1 -->
<svg width="945pt" height="825pt"
 viewBox="0.00 0.00 945.30 824.80" xmlns="http://www.w3.org/2000/svg" xmlns:xlink="http://www.w3.org/1999/xlink">
<g id="graph0" class="graph" transform="scale(1 1) rotate(0) translate(4 820.8)">
<polygon fill="white" stroke="transparent" points="-4,4 -4,-820.8 941.3,-820.8 941.3,4 -4,4"/>
<!-- haproxy -->
<g id="node1" class="node">
<title>haproxy</title>
<polygon fill="none" stroke="black" points="454.38,-816.8 384.05,-816.8 359,-780.8 479.43,-780.8 454.38,-816.8"/>
<text text-anchor="middle" x="419.21" y="-794.6" font-family="Times,serif" font-size="14.00">haproxy</text>
</g>
<!-- parse_syslog -->
<g id="node4" class="node">
<title>parse_syslog</title>
<polygon fill="none" stroke="black" points="419.21,-743.8 332.91,-725.8 419.21,-707.8 505.52,-725.8 419.21,-743.8"/>
<text text-anchor="middle" x="419.21" y="-721.6" font-family="Times,serif" font-size="14.00">parse_syslog</text>
</g>
<!-- haproxy&#45;&gt;parse_syslog -->
<g id="edge2" class="edge">
<title>haproxy&#45;&gt;parse_syslog</title>
<path fill="none" stroke="black" d="M419.21,-780.61C419.21,-772.59 419.21,-762.85 419.21,-753.87"/>
<polygon fill="black" stroke="black" points="422.71,-753.83 419.21,-743.83 415.71,-753.83 422.71,-753.83"/>
</g>
<!-- route_by_type -->
<g id="node2" class="node">
<title>route_by_type</title>
<polygon fill="none" stroke="black" points="419.21,-378.8 324.72,-360.8 419.21,-342.8 513.71,-360.8 419.21,-378.8"/>
<text text-anchor="middle" x="419.21" y="-356.6" font-family="Times,serif" font-size="14.00">route_by_type</text>
</g>
<!-- map_to_reuse -->
<g id="node9" class="node">
<title>map_to_reuse</title>
<polygon fill="none" stroke="black" points="92.21,-290 -0.21,-272 92.21,-254 184.64,-272 92.21,-290"/>
<text text-anchor="middle" x="92.21" y="-267.8" font-family="Times,serif" font-size="14.00">map_to_reuse</text>
</g>
<!-- route_by_type&#45;&gt;map_to_reuse -->
<g id="edge9" class="edge">
<title>route_by_type&#45;&gt;map_to_reuse</title>
<path fill="none" stroke="black" d="M381.7,-349.84C321.83,-333.95 204.76,-302.87 139.33,-285.51"/>
<polygon fill="black" stroke="black" points="139.85,-282.02 129.29,-282.84 138.05,-288.79 139.85,-282.02"/>
<text text-anchor="middle" x="299.98" y="-312.2" font-family="Times,serif" font-size="14.00">reuse</text>
</g>
<!-- map_to_organization -->
<g id="node13" class="node">
<title>map_to_organization</title>
<polygon fill="none" stroke="black" points="334.21,-290 202.38,-272 334.21,-254 466.04,-272 334.21,-290"/>
<text text-anchor="middle" x="334.21" y="-267.8" font-family="Times,serif" font-size="14.00">map_to_organization</text>
</g>
<!-- route_by_type&#45;&gt;map_to_organization -->
<g id="edge11" class="edge">
<title>route_by_type&#45;&gt;map_to_organization</title>
<path fill="none" stroke="black" d="M405.18,-345.47C391.89,-331.89 371.72,-311.3 356.28,-295.53"/>
<polygon fill="black" stroke="black" points="358.63,-292.93 349.13,-288.23 353.63,-297.82 358.63,-292.93"/>
<text text-anchor="middle" x="420.2" y="-312.2" font-family="Times,serif" font-size="14.00">organization</text>
</g>
<!-- map_to_dataset -->
<g id="node15" class="node">
<title>map_to_dataset</title>
<polygon fill="none" stroke="black" points="585.21,-290 484.07,-272 585.21,-254 686.36,-272 585.21,-290"/>
<text text-anchor="middle" x="585.21" y="-267.8" font-family="Times,serif" font-size="14.00">map_to_dataset</text>
</g>
<!-- route_by_type&#45;&gt;map_to_dataset -->
<g id="edge12" class="edge">
<title>route_by_type&#45;&gt;map_to_dataset</title>
<path fill="none" stroke="black" d="M443.35,-347.18C471.91,-332.24 519.64,-307.29 551.76,-290.5"/>
<polygon fill="black" stroke="black" points="553.54,-293.51 560.78,-285.78 550.29,-287.31 553.54,-293.51"/>
<text text-anchor="middle" x="535.65" y="-312.2" font-family="Times,serif" font-size="14.00">dataset</text>
</g>
<!-- map_to_resource -->
<g id="node16" class="node">
<title>map_to_resource</title>
<polygon fill="none" stroke="black" points="814.21,-290 704.41,-272 814.21,-254 924.02,-272 814.21,-290"/>
<text text-anchor="middle" x="814.21" y="-267.8" font-family="Times,serif" font-size="14.00">map_to_resource</text>
</g>
<!-- route_by_type&#45;&gt;map_to_resource -->
<g id="edge10" class="edge">
<title>route_by_type&#45;&gt;map_to_resource</title>
<path fill="none" stroke="black" d="M460.74,-350.67C532.54,-334.9 679.86,-302.52 759.77,-284.96"/>
<polygon fill="black" stroke="black" points="760.62,-288.36 769.64,-282.8 759.12,-281.52 760.62,-288.36"/>
<text text-anchor="middle" x="674.92" y="-312.2" font-family="Times,serif" font-size="14.00">resource</text>
</g>
<!-- detect_type -->
<g id="node3" class="node">
<title>detect_type</title>
<polygon fill="none" stroke="black" points="419.21,-451.8 340.6,-433.8 419.21,-415.8 497.83,-433.8 419.21,-451.8"/>
<text text-anchor="middle" x="419.21" y="-429.6" font-family="Times,serif" font-size="14.00">detect_type</text>
</g>
<!-- detect_type&#45;&gt;route_by_type -->
<g id="edge1" class="edge">
<title>detect_type&#45;&gt;route_by_type</title>
<path fill="none" stroke="black" d="M419.21,-415.61C419.21,-407.59 419.21,-397.85 419.21,-388.87"/>
<polygon fill="black" stroke="black" points="422.71,-388.83 419.21,-378.83 415.71,-388.83 422.71,-388.83"/>
</g>
<!-- parse_haproxy -->
<g id="node7" class="node">
<title>parse_haproxy</title>
<polygon fill="none" stroke="black" points="419.21,-670.8 323.22,-652.8 419.21,-634.8 515.21,-652.8 419.21,-670.8"/>
<text text-anchor="middle" x="419.21" y="-648.6" font-family="Times,serif" font-size="14.00">parse_haproxy</text>
</g>
<!-- parse_syslog&#45;&gt;parse_haproxy -->
<g id="edge4" class="edge">
<title>parse_syslog&#45;&gt;parse_haproxy</title>
<path fill="none" stroke="black" d="M419.21,-707.61C419.21,-699.59 419.21,-689.85 419.21,-680.87"/>
<polygon fill="black" stroke="black" points="422.71,-680.83 419.21,-670.83 415.71,-680.83 422.71,-680.83"/>
</g>
<!-- parse_http_request -->
<g id="node5" class="node">
<title>parse_http_request</title>
<polygon fill="none" stroke="black" points="419.21,-524.8 300.7,-506.8 419.21,-488.8 537.73,-506.8 419.21,-524.8"/>
<text text-anchor="middle" x="419.21" y="-502.6" font-family="Times,serif" font-size="14.00">parse_http_request</text>
</g>
<!-- parse_http_request&#45;&gt;detect_type -->
<g id="edge15" class="edge">
<title>parse_http_request&#45;&gt;detect_type</title>
<path fill="none" stroke="black" d="M419.21,-488.61C419.21,-480.59 419.21,-470.85 419.21,-461.87"/>
<polygon fill="black" stroke="black" points="422.71,-461.83 419.21,-451.83 415.71,-461.83 422.71,-461.83"/>
</g>
<!-- filter_requests -->
<g id="node6" class="node">
<title>filter_requests</title>
<polygon fill="none" stroke="black" points="419.21,-597.8 325.27,-579.8 419.21,-561.8 513.16,-579.8 419.21,-597.8"/>
<text text-anchor="middle" x="419.21" y="-575.6" font-family="Times,serif" font-size="14.00">filter_requests</text>
</g>
<!-- filter_requests&#45;&gt;parse_http_request -->
<g id="edge3" class="edge">
<title>filter_requests&#45;&gt;parse_http_request</title>
<path fill="none" stroke="black" d="M419.21,-561.61C419.21,-553.59 419.21,-543.85 419.21,-534.87"/>
<polygon fill="black" stroke="black" points="422.71,-534.83 419.21,-524.83 415.71,-534.83 422.71,-534.83"/>
</g>
<!-- parse_haproxy&#45;&gt;filter_requests -->
<g id="edge13" class="edge">
<title>parse_haproxy&#45;&gt;filter_requests</title>
<path fill="none" stroke="black" d="M419.21,-634.61C419.21,-626.59 419.21,-616.85 419.21,-607.87"/>
<polygon fill="black" stroke="black" points="422.71,-607.83 419.21,-597.83 415.71,-607.83 422.71,-607.83"/>
</g>
<!-- metric_count_reuses -->
<g id="node8" class="node">
<title>metric_count_reuses</title>
<polygon fill="none" stroke="black" points="162.21,-109 33.48,-91 162.21,-73 290.95,-91 162.21,-109"/>
<text text-anchor="middle" x="162.21" y="-86.8" font-family="Times,serif" font-size="14.00">metric_count_reuses</text>
</g>
<!-- influxdb_metrics -->
<g id="node17" class="node">
<title>influxdb_metrics</title>
<polygon fill="none" stroke="black" points="362.66,0 489.77,0 535.04,-36 317.39,-36 362.66,0"/>
<text text-anchor="middle" x="426.21" y="-13.8" font-family="Times,serif" font-size="14.00">influxdb_metrics</text>
</g>
<!-- metric_count_reuses&#45;&gt;influxdb_metrics -->
<g id="edge18" class="edge">
<title>metric_count_reuses&#45;&gt;influxdb_metrics</title>
<path fill="none" stroke="black" d="M204.05,-78.75C244.04,-67.99 305.18,-51.55 353.2,-38.64"/>
<polygon fill="black" stroke="black" points="354.18,-42 362.93,-36.02 352.36,-35.24 354.18,-42"/>
</g>
<!-- map_to_reuse&#45;&gt;metric_count_reuses -->
<g id="edge5" class="edge">
<title>map_to_reuse&#45;&gt;metric_count_reuses</title>
<path fill="none" stroke="black" d="M94.46,-254.14C98.68,-226.31 109.51,-169.59 132.21,-127 134.43,-122.84 137.22,-118.73 140.2,-114.88"/>
<polygon fill="black" stroke="black" points="143.12,-116.85 146.88,-106.94 137.76,-112.34 143.12,-116.85"/>
</g>
<!-- metric_count_resources -->
<g id="node10" class="node">
<title>metric_count_resources</title>
<polygon fill="none" stroke="black" points="750.21,-109 604.11,-91 750.21,-73 896.32,-91 750.21,-109"/>
<text text-anchor="middle" x="750.21" y="-86.8" font-family="Times,serif" font-size="14.00">metric_count_resources</text>
</g>
<!-- metric_count_resources&#45;&gt;influxdb_metrics -->
<g id="edge16" class="edge">
<title>metric_count_resources&#45;&gt;influxdb_metrics</title>
<path fill="none" stroke="black" d="M700.3,-79.06C650.7,-68.19 573.59,-51.3 513.78,-38.19"/>
<polygon fill="black" stroke="black" points="514.48,-34.76 503.96,-36.04 512.98,-41.6 514.48,-34.76"/>
</g>
<!-- filter_redirects_to_static -->
<g id="node11" class="node">
<title>filter_redirects_to_static</title>
<polygon fill="none" stroke="black" points="788.21,-217 639.03,-199 788.21,-181 937.39,-199 788.21,-217"/>
<text text-anchor="middle" x="788.21" y="-194.8" font-family="Times,serif" font-size="14.00">filter_redirects_to_static</text>
</g>
<!-- filter_redirects_to_static&#45;&gt;metric_count_resources -->
<g id="edge6" class="edge">
<title>filter_redirects_to_static&#45;&gt;metric_count_resources</title>
<path fill="none" stroke="black" d="M784.13,-181.39C780.36,-166.83 774.28,-145.22 767.21,-127 765.99,-123.85 764.6,-120.6 763.15,-117.4"/>
<polygon fill="black" stroke="black" points="766.2,-115.66 758.74,-108.13 759.88,-118.67 766.2,-115.66"/>
</g>
<!-- metric_count_organizations -->
<g id="node12" class="node">
<title>metric_count_organizations</title>
<polygon fill="none" stroke="black" points="309.21,-163 141.08,-145 309.21,-127 477.35,-145 309.21,-163"/>
<text text-anchor="middle" x="309.21" y="-140.8" font-family="Times,serif" font-size="14.00">metric_count_organizations</text>
</g>
<!-- metric_count_organizations&#45;&gt;influxdb_metrics -->
<g id="edge19" class="edge">
<title>metric_count_organizations&#45;&gt;influxdb_metrics</title>
<path fill="none" stroke="black" d="M323.8,-128.42C343.67,-107.19 379.48,-68.93 403.05,-43.75"/>
<polygon fill="black" stroke="black" points="405.66,-46.08 409.94,-36.38 400.55,-41.29 405.66,-46.08"/>
</g>
<!-- map_to_organization&#45;&gt;metric_count_organizations -->
<g id="edge7" class="edge">
<title>map_to_organization&#45;&gt;metric_count_organizations</title>
<path fill="none" stroke="black" d="M330.89,-254.4C326.71,-233.48 319.47,-197.27 314.51,-172.5"/>
<polygon fill="black" stroke="black" points="317.94,-171.79 312.55,-162.67 311.08,-173.16 317.94,-171.79"/>
</g>
<!-- metric_count_datasets -->
<g id="node14" class="node">
<title>metric_count_datasets</title>
<polygon fill="none" stroke="black" points="620.21,-163 482.27,-145 620.21,-127 758.16,-145 620.21,-163"/>
<text text-anchor="middle" x="620.21" y="-140.8" font-family="Times,serif" font-size="14.00">metric_count_datasets</text>
</g>
<!-- metric_count_datasets&#45;&gt;influxdb_metrics -->
<g id="edge17" class="edge">
<title>metric_count_datasets&#45;&gt;influxdb_metrics</title>
<path fill="none" stroke="black" d="M597.96,-129.66C564.56,-108.14 501.15,-67.28 461.43,-41.69"/>
<polygon fill="black" stroke="black" points="463.14,-38.63 452.84,-36.16 459.35,-44.52 463.14,-38.63"/>
</g>
<!-- map_to_dataset&#45;&gt;metric_count_datasets -->
<g id="edge8" class="edge">
<title>map_to_dataset&#45;&gt;metric_count_datasets</title>
<path fill="none" stroke="black" d="M589.79,-254.66C595.63,-233.81 605.8,-197.49 612.76,-172.62"/>
<polygon fill="black" stroke="black" points="616.2,-173.32 615.53,-162.74 609.46,-171.43 616.2,-173.32"/>
</g>
<!-- map_to_resource&#45;&gt;filter_redirects_to_static -->
<g id="edge14" class="edge">
<title>map_to_resource&#45;&gt;filter_redirects_to_static</title>
<path fill="none" stroke="black" d="M808.31,-254.89C805.2,-246.39 801.3,-235.74 797.77,-226.1"/>
<polygon fill="black" stroke="black" points="801,-224.73 794.27,-216.54 794.42,-227.13 801,-224.73"/>
</g>
</g>
</svg>
